<svg id="Layer_1"
 data-name="Layer 1" 
 xmlns="http://www.w3.org/2000/svg" 
 xmlns:xlink="http://www.w3.org/1999/xlink"
  viewBox="0 0 929 259"><defs><style>.cls-1{fill:#fff;}.cls-2{fill:url(#linear-gradient);}.cls-3{fill:url(#linear-gradient-2);}.cls-4{fill:#0f1131;}</style><linearGradient 
  id="linear-gradient" x1="-3050.63" y1="-8929.24" x2="-2945.01" y2="-8927.58" gradientTransform="translate(-2810.55 -8772.01) rotate(180)" gradientUnits="userSpaceOnUse"><stop offset="0" stop-color="#007fff"/><stop offset="0.14" stop-color="#037ffc"/><stop offset="0.26" stop-color="#0d7ef2"/><stop offset="0.36" stop-color="#1e7ee1"/><stop offset="0.46" stop-color="#357dca"/><stop offset="0.55" stop-color="#547bab"/><stop offset="0.64" stop-color="#797a86"/><stop offset="0.72" stop-color="#a67859"/><stop offset="0.81" stop-color="#d87627"/><stop offset="0.86" stop-color="#ff7400"/></linearGradient><linearGradient id="linear-gradient-2" x1="-3133.53" y1="-8874.88" x2="-3066.06" y2="-8874.88" gradientTransform="translate(-2810.55 -8772.01) rotate(180)" gradientUnits="userSpaceOnUse"><stop offset="0.35" stop-color="#007fff"/><stop offset="0.49" stop-color="#4a7cb5"/><stop offset="0.75" stop-color="#cb7634"/><stop offset="0.86" stop-color="#ff7400"/></linearGradient></defs><rect class="cls-1" x="-24" y="-7.14" width="977.33" height="273"/> 
  <path class="cls-2" d="M232.15,130.69a10.76,10.76,0,0,1,7.75,18.22L207,183.12,143.31,152.2a10.76,10.76,0,1,1,9.4-19.35l49.6,24.08L224.39,134A10.71,10.71,0,0,1,232.15,130.69Z"/>
  <path class="cls-3" d="M226.81,76.65l63.66,30.92a10.76,10.76,0,1,1-9.4,19.36l-49.59-24.09-22.09,23a10.76,10.76,0,0,1-15.51-14.92Z"/>
  <path class="cls-4" d="M337.75,152.89a2.28,2.28,0,0,1-1.54-.6,2,2,0,0,1-.68-1.62V95.24a2.06,2.06,0,0,1,.68-1.58,2.19,2.19,0,0,1,1.54-.64h13.94a2.19,2.19,0,0,1,2.23,2.22v19.33h17.45V95.24A2.19,2.19,0,0,1,373.59,93h13.94a2.19,2.19,0,0,1,2.23,2.22v55.43a2.19,2.19,0,0,1-2.23,2.22H373.59a2.19,2.19,0,0,1-2.22-2.22V130.82H353.92v19.85a2.19,2.19,0,0,1-2.23,2.22Z"/>
  <path class="cls-4" d="M408.15,169.14a1.89,1.89,0,0,1-1.33-.51,1.67,1.67,0,0,1-.55-1.28,2.45,2.45,0,0,1,0-.43c0-.17.07-.37.13-.6l6.84-16.16-16.51-38.92a3,3,0,0,1-.17-.86,2.82,2.82,0,0,1,.73-1.37,1.74,1.74,0,0,1,1.32-.6h12.06a2.34,2.34,0,0,1,1.84.64,5.4,5.4,0,0,1,.82,1.24l8.38,22.24,8.64-22.24a4.84,4.84,0,0,1,.94-1.28,2.42,2.42,0,0,1,1.79-.6h12a1.86,1.86,0,0,1,1.28.56,1.66,1.66,0,0,1,.6,1.24,3.42,3.42,0,0,1-.17,1l-24.12,56a4.69,4.69,0,0,1-1,1.29,2.66,2.66,0,0,1-1.84.59Z"/>
  <path class="cls-4" d="M454.59,152.89a2.19,2.19,0,0,1-2.22-2.22v-40a2.16,2.16,0,0,1,.64-1.59,2.19,2.19,0,0,1,1.58-.64H467a2.19,2.19,0,0,1,1.58.64,2.16,2.16,0,0,1,.64,1.59v3.16a20,20,0,0,1,5.86-3.93,17.66,17.66,0,0,1,7.23-1.46h3.85a2.33,2.33,0,0,1,1.62.64,2.09,2.09,0,0,1,.69,1.59v11a2.22,2.22,0,0,1-.69,1.63,2.25,2.25,0,0,1-1.62.68h-9.58a6.49,6.49,0,0,0-4.71,1.58,6.25,6.25,0,0,0-1.62,4.67v20.44a2.19,2.19,0,0,1-2.23,2.22Z"/>
  <path class="cls-4" d="M515.58,153.75q-10.7,0-17-5.52t-6.46-16.89v-1.71a25.36,25.36,0,0,1,3.12-12,18.74,18.74,0,0,1,8.05-7.49,27.14,27.14,0,0,1,12.19-2.56q7.86,0,13,3.12a19.86,19.86,0,0,1,7.74,8.3,25.73,25.73,0,0,1,2.57,11.59V133a2.11,2.11,0,0,1-.69,1.54,2.2,2.2,0,0,1-1.62.69H510.19v.51a11,11,0,0,0,.56,3.64,5.14,5.14,0,0,0,1.75,2.48,4.77,4.77,0,0,0,2.91.89,4.58,4.58,0,0,0,1.88-.34,4.46,4.46,0,0,0,1.33-.9c.37-.37.69-.72,1-1.07a4.46,4.46,0,0,1,1.28-1,4.33,4.33,0,0,1,1.54-.21h13.43a1.89,1.89,0,0,1,1.33.51,1.43,1.43,0,0,1,.47,1.28,8.21,8.21,0,0,1-1.46,3.72,16.35,16.35,0,0,1-4.06,4.24,23,23,0,0,1-6.88,3.42A31.26,31.26,0,0,1,515.58,153.75Zm-5.39-28.14H520.8v-.17a11.42,11.42,0,0,0-.6-3.94,4.92,4.92,0,0,0-1.8-2.44,5.61,5.61,0,0,0-5.81,0,4.92,4.92,0,0,0-1.8,2.44,11.42,11.42,0,0,0-.6,3.94Z"/>
  <path class="cls-4" d="M570.41,153.75q-9,0-14.93-2.53a20.5,20.5,0,0,1-8.89-6.58,15.38,15.38,0,0,1-3.12-8.6,1.74,1.74,0,0,1,1.79-1.79h13.6a3.8,3.8,0,0,1,1.88.38,8.66,8.66,0,0,1,1.46,1.07,11.43,11.43,0,0,0,1.79,1.75,7.68,7.68,0,0,0,2.66,1.29,13.65,13.65,0,0,0,3.76.47,13.9,13.9,0,0,0,6.07-1.07,3.26,3.26,0,0,0,2.14-2.95,3,3,0,0,0-1.15-2.4,11.09,11.09,0,0,0-3.9-1.71q-2.73-.77-7.44-1.62a46,46,0,0,1-11.37-3.3,17.08,17.08,0,0,1-7.32-5.9,16,16,0,0,1-2.52-9.2,16.25,16.25,0,0,1,3.12-9.83,20.38,20.38,0,0,1,8.73-6.67,32.87,32.87,0,0,1,13-2.4,33.47,33.47,0,0,1,10.91,1.63,26.06,26.06,0,0,1,8,4.23,20.25,20.25,0,0,1,5,5.6,12.43,12.43,0,0,1,1.79,5.73,1.8,1.8,0,0,1-.55,1.33,1.75,1.75,0,0,1-1.24.56H579.39a4,4,0,0,1-1.75-.35,3.61,3.61,0,0,1-1.33-1.11,4.27,4.27,0,0,0-2.14-2.14,9.06,9.06,0,0,0-4.36-.94,8.27,8.27,0,0,0-4.45,1,3.2,3.2,0,0,0-1.54,2.86,3.08,3.08,0,0,0,.94,2.23,8.21,8.21,0,0,0,3.34,1.66q2.4.74,6.67,1.59a51.06,51.06,0,0,1,13.13,3.42,16.17,16.17,0,0,1,7.32,5.81,16.4,16.4,0,0,1,2.31,9A16.13,16.13,0,0,1,594,144.68a22.33,22.33,0,0,1-9.62,6.72A39,39,0,0,1,570.41,153.75Z"/>
  <path class="cls-4" d="M606.25,152.89a2.12,2.12,0,0,1-1.58-.64,2.14,2.14,0,0,1-.65-1.58v-40a2.2,2.2,0,0,1,2.23-2.23h12.4a2.2,2.2,0,0,1,2.23,2.23v3.08a18.35,18.35,0,0,1,5.9-4.37,18.93,18.93,0,0,1,8.38-1.79,16.62,16.62,0,0,1,8.38,2.14,15.72,15.72,0,0,1,6.08,6.41,22.52,22.52,0,0,1,2.31,10.78v23.78a2.07,2.07,0,0,1-.69,1.58,2.29,2.29,0,0,1-1.62.64H636.1a2.19,2.19,0,0,1-2.22-2.22V127.49a7.09,7.09,0,0,0-1.54-4.88A5.57,5.57,0,0,0,628,120.9a5.83,5.83,0,0,0-4.45,1.71,6.79,6.79,0,0,0-1.63,4.88v23.18a2.19,2.19,0,0,1-2.22,2.22Z"/>
  <path class="cls-4" d="M674.08,153.75a19.14,19.14,0,0,1-8.43-1.8,14.57,14.57,0,0,1-5.81-4.83,11.67,11.67,0,0,1-2.1-6.8,11.27,11.27,0,0,1,5-9.71q5-3.56,13.38-4.92l9.84-1.54v-.6a7.75,7.75,0,0,0-.81-4c-.55-.89-1.67-1.33-3.38-1.33a5.55,5.55,0,0,0-2.91.68,7.45,7.45,0,0,0-2,2,2.86,2.86,0,0,1-2.23.94H662.53a2,2,0,0,1-1.45-.51,1.61,1.61,0,0,1-.43-1.37,8.76,8.76,0,0,1,1.28-3.64,15,15,0,0,1,3.72-4.1,21.24,21.24,0,0,1,6.55-3.34,31.15,31.15,0,0,1,9.66-1.32,33.43,33.43,0,0,1,9.84,1.28,18.65,18.65,0,0,1,6.76,3.59,14,14,0,0,1,3.93,5.61,19.86,19.86,0,0,1,1.29,7.31v25.32a2.19,2.19,0,0,1-2.23,2.22H689a2.19,2.19,0,0,1-1.54-.64,2.1,2.1,0,0,1-.68-1.58v-2.74a11.05,11.05,0,0,1-3,3,16,16,0,0,1-4.28,2A18,18,0,0,1,674.08,153.75Zm5-11.21a7.37,7.37,0,0,0,3.72-.9,6.26,6.26,0,0,0,2.53-2.78,10.54,10.54,0,0,0,.94-4.7v-.6l-6.16,1.2a9.42,9.42,0,0,0-4.45,1.75,3.35,3.35,0,0,0-1.28,2.53,2.82,2.82,0,0,0,.6,1.79,4,4,0,0,0,1.66,1.24A5.94,5.94,0,0,0,679,142.54Z"/>
  <path class="cls-4" d="M714.37,169.14a2.2,2.2,0,0,1-2.23-2.22V110.64a2.2,2.2,0,0,1,2.23-2.23h12.06a2.19,2.19,0,0,1,1.58.64,2.16,2.16,0,0,1,.64,1.59v2.82a15.77,15.77,0,0,1,13-5.9,20.53,20.53,0,0,1,7.23,1.2,15.22,15.22,0,0,1,5.61,3.63,17.05,17.05,0,0,1,3.76,6.2,30.4,30.4,0,0,1,1.62,8.81c.06,1.2.09,2.28.09,3.25s0,2.09-.09,3.34a26.69,26.69,0,0,1-1.54,8.47,17.88,17.88,0,0,1-3.76,6.2,15.54,15.54,0,0,1-5.65,3.8,19.53,19.53,0,0,1-7.27,1.29,16.9,16.9,0,0,1-6.93-1.33,11.8,11.8,0,0,1-5-4.15v18.65a2.08,2.08,0,0,1-.68,1.58,2.19,2.19,0,0,1-1.54.64Zm21.47-28.74a5.88,5.88,0,0,0,3.46-.89,5,5,0,0,0,1.8-2.48,14.58,14.58,0,0,0,.72-3.64,27.77,27.77,0,0,0,0-5.47,14.58,14.58,0,0,0-.72-3.64,5,5,0,0,0-1.8-2.48,5.81,5.81,0,0,0-3.46-.9,6,6,0,0,0-3.55.94,5.09,5.09,0,0,0-1.88,2.48,11.42,11.42,0,0,0-.65,3.42c0,1.2-.08,2.27-.08,3.21s0,2,.08,3.21a8.3,8.3,0,0,0,.73,3.16,5.34,5.34,0,0,0,1.93,2.23A6.06,6.06,0,0,0,735.84,140.4Z"/>
  <path class="cls-4" d="M769.11,152.89a2.19,2.19,0,0,1-2.22-2.22V137.84a2.3,2.3,0,0,1,.64-1.63,2.1,2.1,0,0,1,1.58-.68h12.83a2.32,2.32,0,0,1,2.31,2.31v12.83a2.1,2.1,0,0,1-.68,1.58,2.3,2.3,0,0,1-1.63.64Z"/>
</svg>